<svg id="visual" viewBox="0 0 900 600" width="900" height="600" xmlns="http://www.w3.org/2000/svg" xmlns:xlink="http://www.w3.org/1999/xlink" version="1.1"><rect x="0" y="0" width="900" height="600" fill="#140021"></rect><path d="M0 296L129 296L129 325L257 325L257 321L386 321L386 259L514 259L514 273L643 273L643 331L771 331L771 340L900 340L900 319L900 601L900 601L771 601L771 601L643 601L643 601L514 601L514 601L386 601L386 601L257 601L257 601L129 601L129 601L0 601Z" fill="#9900ff"></path><path d="M0 378L129 378L129 418L257 418L257 462L386 462L386 361L514 361L514 371L643 371L643 461L771 461L771 386L900 386L900 451L900 601L900 601L771 601L771 601L643 601L643 601L514 601L514 601L386 601L386 601L257 601L257 601L129 601L129 601L0 601Z" fill="#7700c6"></path><path d="M0 472L129 472L129 522L257 522L257 446L386 446L386 524L514 524L514 503L643 503L643 535L771 535L771 463L900 463L900 468L900 601L900 601L771 601L771 601L643 601L643 601L514 601L514 601L386 601L386 601L257 601L257 601L129 601L129 601L0 601Z" fill="#560090"></path></svg>